<svg id="レイヤー_1" data-name="レイヤー 1" xmlns="http://www.w3.org/2000/svg" viewBox="0 0 127.56 70.87"><defs><style>.cls-1{fill:#f29600;}.cls-2{fill:#231815;}</style></defs><title>アートボード 1</title><rect class="cls-1" x="8.43" y="20.62" width="112.05" height="35.26"/><path class="cls-2" d="M21.55,51.91l-1.67.65h3.56A2.52,2.52,0,0,0,24.77,51a2.43,2.43,0,0,0-.57-1.89A2.34,2.34,0,0,0,26,48.13a2.37,2.37,0,0,0,.16-1.9,3.49,3.49,0,0,0,.86.12,1.79,1.79,0,0,0,1.35-.54A2.6,2.6,0,0,0,29,44.29a2.64,2.64,0,0,0,1.55.61,2.31,2.31,0,0,0,1.93-1.35A2.31,2.31,0,0,0,34.4,44.9,2.64,2.64,0,0,0,36,44.29a2.59,2.59,0,0,0,.63,1.52,1.79,1.79,0,0,0,1.35.54,3.49,3.49,0,0,0,.86-.12,2.37,2.37,0,0,0,.16,1.9,2.34,2.34,0,0,0,1.77.94A2.43,2.43,0,0,0,40.16,51a2.52,2.52,0,0,0,1.32,1.6H45l-1.67-.65c-1.51-.59-1.8-1-1.84-1.21s.07-.69,1.23-1.77l1.39-1.3-1.9.09H41.7c-1.22,0-1.5-.24-1.57-.35s-.19-.58.5-2.05l.82-1.75-1.75.82a4.82,4.82,0,0,1-1.77.56c-.24,0-.31-.07-.34-.11s-.35-.6-.28-2.07l.09-1.9-1.3,1.39c-1,1-1.45,1.23-1.7,1.23s-.69-.32-1.28-1.85L32.46,40l-.65,1.67c-.6,1.53-1,1.85-1.28,1.85s-.75-.21-1.7-1.23l-1.3-1.39.09,1.9c.07,1.47-.15,1.93-.28,2.07s-.1.11-.34.11a4.83,4.83,0,0,1-1.77-.56l-1.75-.82.82,1.75c.69,1.47.58,1.93.5,2.05s-.35.35-1.57.35h-.54l-1.9-.09,1.39,1.3c1.16,1.08,1.27,1.57,1.23,1.77s-.33.62-1.84,1.21"/><path class="cls-2" d="M55.82,51A133.61,133.61,0,0,0,44.57,42.6l-.13-.09c-2.75-1.88-3.78-2.59-3.78-4.28,0-1.28,0-1.54,7.45-8a72.24,72.24,0,0,0,5.35-5.06l5.22,2.88c-7.18,6.14-8,6.81-10.86,8.9-.52.37-.75.69-.75,1s.16.5,1.12,1c3.37,1.85,9.6,5.27,13,8Z"/><path class="cls-2" d="M64,37.6c2.31-.16,4.34-.58,4.5-3.17H72c-.27,4.87-3.57,5.77-6.8,6Zm11.37,2.63c-1.46,0-2-.49-2-1.87V34.43H76.8v2.34c0,.64.39.64.65.64H78a.56.56,0,0,0,.65-.59l.12-1,3.37.52c-.35,3.8-.78,3.94-2.67,3.94Zm3.09-5.12V33.6H67.61V35H64.2V31.23H81.84v3.88Zm-13.6-4.67V28.21h6.32v-.85H64V24.85h7.09v-.74h3.65v.74H82v2.51H74.79v.85H81.2v2.23Z"/><path class="cls-2" d="M87.69,40.18c0-.56,0-1.82,0-2.76V35.79l-.31.47a14.61,14.61,0,0,1-1.83,2.09l-1.33-3.08a15.79,15.79,0,0,0,3.46-3.51l0-1v-.18l-3,.1V27.92h3l0-2.32H91s-.07,2.38-.08,2.6l0,.37.29-.22c2.11-1.6,3.37-1.6,4-1.6a2.69,2.69,0,0,1,2.69,1.49,9.44,9.44,0,0,1,.3,2l-.21,5c0,.7,0,1.14.26,1.41s.88.34,1.85.34h0a5.77,5.77,0,0,0,.6,0l-.79,3c-2.22-.06-3.57-.12-4.49-1.12a5.47,5.47,0,0,1-.81-3l.25-4.53a1.63,1.63,0,0,0-.21-1.2.78.78,0,0,0-.59-.21c-.93,0-2.79,1.55-3.15,1.86l-.06,0v.08c-.05,1.67-.07,2.74-.07,4,0,2,.05,3.14.13,4.38Z"/><path class="cls-2" d="M114.39,25.72v2.48c-.5.35-2.72,1.95-3.19,2.27a5,5,0,0,1,1-.08c5.16,0,5.3,4.08,5.3,4.71,0,3.45-2.92,5.33-7.31,5.33-4.15,0-4.88-2-4.88-3.08,0-1.95,2-2.93,3.81-2.93,2.08,0,3.11,1.2,3.11,2.43a2.07,2.07,0,0,1-.14.72,2.32,2.32,0,0,0,1.8-2.3c0-2.08-2.38-2.22-3.19-2.22a6.77,6.77,0,0,0-4.18,1.43c-.55.42-2.12,1.88-3.15,2.85l-1.87-3c.52-.35,1.11-.75,2-1.38s4.63-3.51,5.41-4.1L103.3,29V25.72ZM109.9,37.58a.87.87,0,0,0-1-.91c-.48,0-1,.22-1,.68s.38.63,1.37.63a2.22,2.22,0,0,0,.48-.07.75.75,0,0,0,.09-.33"/><rect class="cls-2" x="74.97" y="45.67" width="1.93" height="3.49"/><path class="cls-2" d="M78.35,52.39l1.33-3.23,1.44-3.49h3.18l-2.77,6.72Zm-.64-3.23V45.67h1.93v3.49Z"/><polygon class="cls-2" points="85.11 52.39 85.11 42.84 89.85 42.84 89.85 47.07 95.86 47.07 95.86 48.16 89.85 48.16 89.85 52.39 85.11 52.39"/><polygon class="cls-2" points="94.11 52.39 94.11 51.3 100.12 51.3 100.12 43.93 94.11 43.93 94.11 42.84 104.86 42.84 104.86 52.39 94.11 52.39"/><polygon class="cls-2" points="105.9 52.39 108.11 42.84 112.51 42.84 110.55 51.3 113.21 51.3 112.4 47.78 116.8 47.78 117.87 52.39 105.9 52.39"/><polygon class="cls-2" points="63.36 52.39 63.36 42.84 68.1 42.84 68.1 47.07 74.11 47.07 74.11 48.16 68.1 48.16 68.1 52.39 63.36 52.39"/><path class="cls-2" d="M71,42.22a1.28,1.28,0,1,0,1.28,1.28A1.28,1.28,0,0,0,71,42.22"/><path class="cls-2" d="M74.07,42.22a1.28,1.28,0,1,0,1.28,1.28,1.28,1.28,0,0,0-1.28-1.28"/><path class="cls-2" d="M12.7,32.06l23.78-9.85L40.55,32a3,3,0,0,1,.21,2.15A2.93,2.93,0,0,1,39,35.81l-4.14,1.71L33.57,35.7,23,40.1l-2.66-6.42,12-5L34,32.82l.16-.07c.7-.32,1-.44.68-1.11L33,27.29l-14.25,5.9,3.88,9.37-4.8,2Zm13.19,2.22.48,1.15,2.89-1.2-.48-1.15ZM12.61,24.17,31,16.57l2.41,5.82L15,30Zm5.61.26.48,1.15,9-3.72-.48-1.15ZM7.09,21.31l10.24-4.24-.41-1,4.86-2,.41,1,10.65-4.41,1.43,3.46L8.52,24.76Z"/><path class="cls-2" d="M34.21,7.37a3.34,3.34,0,0,1,2.09,2.5A2.89,2.89,0,0,0,31,7.66a3.34,3.34,0,0,1,3.24-.29"/><path class="cls-2" d="M33.57,8.93A2.32,2.32,0,0,1,35,10.67a2,2,0,0,0-3.7-1.53,2.32,2.32,0,0,1,2.25-.2"/><path class="cls-2" d="M16.67,47.7a3.34,3.34,0,0,0,3.24-.29,2.89,2.89,0,0,1-5.33-2.21,3.34,3.34,0,0,0,2.09,2.5"/><path class="cls-2" d="M17.32,46.14a2.31,2.31,0,0,0,2.25-.2,2,2,0,0,1-3.7-1.53,2.31,2.31,0,0,0,1.45,1.73"/><path class="cls-2" d="M13.88,58h1.28v.36H18.5v.87H10.6v-.87h3.28Zm2.58,5.78h.3c.1,0,.17,0,.17-.16V62.13H12.15v2.65H10.89V61.35h7.27v2.7c0,.15,0,.73-.77.73H16.13L16,64.2H12.65V62.4h3.8Zm.9-2.66H11.72V59.42h5.63Zm-4.4-.69h3.16v-.35H12.95Zm.88,3.06h1.43v-.4H13.83Z"/><path class="cls-2" d="M27.6,64.66a31,31,0,0,0-3.36-2.14c-.75-.43-1.18-.67-1.18-1.14s.26-.56.91-1.06c1.48-1.17,2.07-1.66,2.68-2.21l1.41.64c-1.17,1-2.6,1.92-3.11,2.26-.13.09-.31.21-.31.31s.14.21.4.33a30.2,30.2,0,0,1,3.84,2.14Z"/><path class="cls-2" d="M36.93,62c-.08,2-1.27,2.56-3,2.8l-.52-1.06c1.38-.21,2.13-.46,2.14-1.74Zm-3.42-3.61h3.26V58h1.37v.41H41.4v1H38.14v.34H41v.89H33.93v-.89h2.84V59.4H33.51Zm.15,2.48h7.63V62.5H40v-.68H35v.66h-1.3Zm7.79,2.18a4.48,4.48,0,0,1-.22,1.21.82.82,0,0,1-.73.44h-2c-.52,0-.8-.25-.8-.7V62H39V63.5c0,.16.05.19.19.19h.57c.28,0,.32,0,.37-.81Z"/><path class="cls-2" d="M49,58.26c0,.06,0,1.19,0,1.33A3.62,3.62,0,0,1,51,58.73c1.41,0,1.37,1.22,1.36,1.6l-.06,2c0,.79.15.8,1.24.82l-.37,1.13c-.85,0-1.64-.08-2-.68A2.48,2.48,0,0,1,51,62.51l.09-1.91c0-.4,0-.71-.4-.71a2.54,2.54,0,0,0-1.76,1c0,.33,0,.85,0,1.6,0,1,0,1.53,0,2H47.67c0-.31,0-1.7,0-2a5.09,5.09,0,0,1-.94,1.1l-.61-1.17a6.89,6.89,0,0,0,1.56-1.56v-.57l-1.33,0V59.28h1.33c0-.12,0-1,0-1Z"/><path class="cls-2" d="M63.16,58.36v.89l-1.52,1.16a2.2,2.2,0,0,1,.71-.08,2.12,2.12,0,0,1,2.36,2c0,1.18-1,2.17-3.28,2.17-2.06,0-2.1-1.15-2.1-1.3,0-.75.81-1.17,1.57-1.17a1.26,1.26,0,0,1,1.43,1.18,1.39,1.39,0,0,1,0,.24c.67-.19,1.06-.53,1.06-1.07s-.3-1.13-1.64-1.13-1.91.54-3.37,1.89l-.79-.94c.65-.44,1-.68,3.67-2.81l-2.79.05V58.36Zm-1.75,5.09a.53.53,0,0,0-.57-.54c-.3,0-.51.14-.51.35s.57.39.75.39a1.47,1.47,0,0,0,.3,0,.57.57,0,0,0,0-.16"/><path class="cls-2" d="M71.57,58.24v1.7a24,24,0,0,1,3.82,1.5l-.67,1.21a18.92,18.92,0,0,0-3.15-1.5v3.39H70.19V58.24Zm2,1.63a6.87,6.87,0,0,0-.67-1.09l.65-.27a5.75,5.75,0,0,1,.68,1Zm1.07-.45a6.43,6.43,0,0,0-.67-1l.66-.28a5.78,5.78,0,0,1,.69,1Z"/><path class="cls-2" d="M80.59,62a6.72,6.72,0,0,0-.63-1.8L81,60a7.16,7.16,0,0,1,.7,1.81Zm0,1.69c2.87-.62,3.46-1.61,4-4l1.23.25c-.45,1.69-1,3.89-4.64,4.65Zm1.79-2a6.9,6.9,0,0,0-.56-1.79l1-.19a6.08,6.08,0,0,1,.6,1.76Z"/><path class="cls-2" d="M92.44,58.24v1.7a19.37,19.37,0,0,1,3.82,1.5l-.68,1.19a16.08,16.08,0,0,0-3.14-1.49v3.39H91.06V58.24Z"/><polygon class="cls-2" points="106.38 58.8 106.38 64.06 100.36 64.06 100.36 62.94 105.03 62.94 105.03 59.91 100.44 59.91 100.44 58.8 106.38 58.8"/><path class="cls-2" d="M116.19,60.78a12.87,12.87,0,0,1,2,3.27l-1.28.5c-.11-.27-.17-.41-.25-.6-1.34.17-4.84.32-5.39.35l-.15-1.19h.78a33.12,33.12,0,0,0,1.47-4.81l1.4.12c-1.06,3.22-1.18,3.58-1.63,4.67.78,0,1,0,3.06-.09a10.21,10.21,0,0,0-1.09-1.75Z"/></svg>